<svg xmlns="http://www.w3.org/2000/svg">
  <!-- Gia đình | users-round | Lucide ISC -->
  <symbol id="group-family" viewBox="0 0 24 24" fill="none" stroke="currentColor" stroke-width="2" stroke-linecap="round" stroke-linejoin="round">
      <path d="M18 21a8 8 0 0 0-16 0" />
      <circle cx="10" cy="8" r="5" />
      <path d="M22 20c0-3.37-2-6.5-4-8a5 5 0 0 0-.45-8.3" />
  </symbol>
  <!-- Sinh nhật / tiệc | cake | Lucide ISC -->
  <symbol id="group-birthday" viewBox="0 0 24 24" fill="none" stroke="currentColor" stroke-width="2" stroke-linecap="round" stroke-linejoin="round">
      <path d="M20 21v-8a2 2 0 0 0-2-2H6a2 2 0 0 0-2 2v8" />
      <path d="M4 16s.5-1 2-1 2.5 2 4 2 2.5-2 4-2 2.5 2 4 2 2-1 2-1" />
      <path d="M2 21h20" />
      <path d="M7 8v3" />
      <path d="M12 8v3" />
      <path d="M17 8v3" />
      <path d="M7 4h.01" />
      <path d="M12 4h.01" />
      <path d="M17 4h.01" />
  </symbol>
  <!-- Tưởng niệm / đám giỗ | flower-2 | Lucide ISC -->
  <symbol id="group-memorial" viewBox="0 0 24 24" fill="none" stroke="currentColor" stroke-width="2" stroke-linecap="round" stroke-linejoin="round">
      <path d="M12 5a3 3 0 1 1 3 3m-3-3a3 3 0 1 0-3 3m3-3v1M9 8a3 3 0 1 0 3 3M9 8h1m5 0a3 3 0 1 1-3 3m3-3h-1m-2 3v-1" />
      <circle cx="12" cy="8" r="2" />
      <path d="M12 10v12" />
      <path d="M12 22c4.2 0 7-1.667 7-5-4.2 0-7 1.667-7 5Z" />
      <path d="M12 22c-4.2 0-7-1.667-7-5 4.2 0 7 1.667 7 5Z" />
  </symbol>
  <!-- Công việc | briefcase-business | Lucide ISC -->
  <symbol id="group-work" viewBox="0 0 24 24" fill="none" stroke="currentColor" stroke-width="2" stroke-linecap="round" stroke-linejoin="round">
      <path d="M12 12h.01" />
      <path d="M16 6V4a2 2 0 0 0-2-2h-4a2 2 0 0 0-2 2v2" />
      <path d="M22 13a18.15 18.15 0 0 1-20 0" />
      <rect width="20" height="14" x="2" y="6" rx="2" />
  </symbol>
  <!-- Họp / lịch hẹn | notebook-pen | Lucide ISC -->
  <symbol id="group-meeting" viewBox="0 0 24 24" fill="none" stroke="currentColor" stroke-width="2" stroke-linecap="round" stroke-linejoin="round">
      <path d="M13.4 2H6a2 2 0 0 0-2 2v16a2 2 0 0 0 2 2h12a2 2 0 0 0 2-2v-7.4" />
      <path d="M2 6h4" />
      <path d="M2 10h4" />
      <path d="M2 14h4" />
      <path d="M2 18h4" />
      <path d="M21.378 5.626a1 1 0 1 0-3.004-3.004l-5.01 5.012a2 2 0 0 0-.506.854l-.837 2.87a.5.5 0 0 0 .62.62l2.87-.837a2 2 0 0 0 .854-.506z" />
  </symbol>
  <!-- Học tập | graduation-cap | Lucide ISC -->
  <symbol id="group-study" viewBox="0 0 24 24" fill="none" stroke="currentColor" stroke-width="2" stroke-linecap="round" stroke-linejoin="round">
      <path d="M21.42 10.922a1 1 0 0 0-.019-1.838L12.83 5.18a2 2 0 0 0-1.66 0L2.6 9.08a1 1 0 0 0 0 1.832l8.57 3.908a2 2 0 0 0 1.66 0z" />
      <path d="M22 10v6" />
      <path d="M6 12.5V16a6 3 0 0 0 12 0v-3.5" />
  </symbol>
  <!-- Đọc sách / khóa học | book-open | Lucide ISC -->
  <symbol id="group-book" viewBox="0 0 24 24" fill="none" stroke="currentColor" stroke-width="2" stroke-linecap="round" stroke-linejoin="round">
      <path d="M12 7v14" />
      <path d="M3 18a1 1 0 0 1-1-1V4a1 1 0 0 1 1-1h5a4 4 0 0 1 4 4 4 4 0 0 1 4-4h5a1 1 0 0 1 1 1v13a1 1 0 0 1-1 1h-6a3 3 0 0 0-3 3 3 3 0 0 0-3-3z" />
  </symbol>
  <!-- Sức khỏe | heart-pulse | Lucide ISC -->
  <symbol id="group-health" viewBox="0 0 24 24" fill="none" stroke="currentColor" stroke-width="2" stroke-linecap="round" stroke-linejoin="round">
      <path d="M2 9.5a5.5 5.5 0 0 1 9.591-3.676.56.56 0 0 0 .818 0A5.49 5.49 0 0 1 22 9.5c0 2.29-1.5 4-3 5.5l-5.492 5.313a2 2 0 0 1-3 .019L5 15c-1.5-1.5-3-3.2-3-5.5" />
      <path d="M3.22 13H9.5l.5-1 2 4.5 2-7 1.5 3.5h5.27" />
  </symbol>
  <!-- Thuốc men | pill | Lucide ISC -->
  <symbol id="group-medicine" viewBox="0 0 24 24" fill="none" stroke="currentColor" stroke-width="2" stroke-linecap="round" stroke-linejoin="round">
      <path d="m10.5 20.5 10-10a4.95 4.95 0 1 0-7-7l-10 10a4.95 4.95 0 1 0 7 7Z" />
      <path d="m8.5 8.5 7 7" />
  </symbol>
  <!-- Tài chính | wallet | Lucide ISC -->
  <symbol id="group-finance" viewBox="0 0 24 24" fill="none" stroke="currentColor" stroke-width="2" stroke-linecap="round" stroke-linejoin="round">
      <path d="M19 7V4a1 1 0 0 0-1-1H5a2 2 0 0 0 0 4h15a1 1 0 0 1 1 1v4h-3a2 2 0 0 0 0 4h3a1 1 0 0 0 1-1v-2a1 1 0 0 0-1-1" />
      <path d="M3 5v14a2 2 0 0 0 2 2h15a1 1 0 0 0 1-1v-4" />
  </symbol>
  <!-- Mua sắm | shopping-bag | Lucide ISC -->
  <symbol id="group-shopping" viewBox="0 0 24 24" fill="none" stroke="currentColor" stroke-width="2" stroke-linecap="round" stroke-linejoin="round">
      <path d="M16 10a4 4 0 0 1-8 0" />
      <path d="M3.103 6.034h17.794" />
      <path d="M3.4 5.467a2 2 0 0 0-.4 1.2V20a2 2 0 0 0 2 2h14a2 2 0 0 0 2-2V6.667a2 2 0 0 0-.4-1.2l-2-2.667A2 2 0 0 0 17 2H7a2 2 0 0 0-1.6.8z" />
  </symbol>
  <!-- Ăn uống | utensils-crossed | Lucide ISC -->
  <symbol id="group-food" viewBox="0 0 24 24" fill="none" stroke="currentColor" stroke-width="2" stroke-linecap="round" stroke-linejoin="round">
      <path d="m16 2-2.3 2.3a3 3 0 0 0 0 4.2l1.8 1.8a3 3 0 0 0 4.2 0L22 8" />
      <path d="M15 15 3.3 3.3a4.2 4.2 0 0 0 0 6l7.3 7.3c.7.7 2 .7 2.8 0L15 15Zm0 0 7 7" />
      <path d="m2.1 21.8 6.4-6.3" />
      <path d="m19 5-7 7" />
  </symbol>
  <!-- Du lịch | plane | Lucide ISC -->
  <symbol id="group-travel" viewBox="0 0 24 24" fill="none" stroke="currentColor" stroke-width="2" stroke-linecap="round" stroke-linejoin="round">
      <path d="M17.8 19.2 16 11l3.5-3.5C21 6 21.5 4 21 3c-1-.5-3 0-4.5 1.5L13 8 4.8 6.2c-.5-.1-.9.1-1.1.5l-.3.5c-.2.5-.1 1 .3 1.3L9 12l-2 3H4l-1 1 3 2 2 3 1-1v-3l3-2 3.5 5.3c.3.4.8.5 1.3.3l.5-.2c.4-.3.6-.7.5-1.2z" />
  </symbol>
  <!-- Di chuyển | car | Lucide ISC -->
  <symbol id="group-car" viewBox="0 0 24 24" fill="none" stroke="currentColor" stroke-width="2" stroke-linecap="round" stroke-linejoin="round">
      <path d="M19 17h2c.6 0 1-.4 1-1v-3c0-.9-.7-1.7-1.5-1.9C18.7 10.6 16 10 16 10s-1.3-1.4-2.2-2.3c-.5-.4-1.1-.7-1.8-.7H5c-.6 0-1.1.4-1.4.9l-1.4 2.9A3.7 3.7 0 0 0 2 12v4c0 .6.4 1 1 1h2" />
      <circle cx="7" cy="17" r="2" />
      <path d="M9 17h6" />
      <circle cx="17" cy="17" r="2" />
  </symbol>
  <!-- Gia đình / nhà cửa | house-heart | Lucide ISC -->
  <symbol id="group-home" viewBox="0 0 24 24" fill="none" stroke="currentColor" stroke-width="2" stroke-linecap="round" stroke-linejoin="round">
      <path d="M8.62 13.8A2.25 2.25 0 1 1 12 10.836a2.25 2.25 0 1 1 3.38 2.966l-2.626 2.856a.998.998 0 0 1-1.507 0z" />
      <path d="M3 10a2 2 0 0 1 .709-1.528l7-6a2 2 0 0 1 2.582 0l7 6A2 2 0 0 1 21 10v9a2 2 0 0 1-2 2H5a2 2 0 0 1-2-2z" />
  </symbol>
  <!-- Thú cưng | paw-print | Lucide ISC -->
  <symbol id="group-pet" viewBox="0 0 24 24" fill="none" stroke="currentColor" stroke-width="2" stroke-linecap="round" stroke-linejoin="round">
      <circle cx="11" cy="4" r="2" />
      <circle cx="18" cy="8" r="2" />
      <circle cx="20" cy="16" r="2" />
      <path d="M9 10a5 5 0 0 1 5 5v3.5a3.5 3.5 0 0 1-6.84 1.045Q6.52 17.48 4.46 16.84A3.5 3.5 0 0 1 5.5 10Z" />
  </symbol>
  <!-- Em bé | baby | Lucide ISC -->
  <symbol id="group-baby" viewBox="0 0 24 24" fill="none" stroke="currentColor" stroke-width="2" stroke-linecap="round" stroke-linejoin="round">
      <path d="M10 16c.5.3 1.2.5 2 .5s1.5-.2 2-.5" />
      <path d="M15 12h.01" />
      <path d="M19.38 6.813A9 9 0 0 1 20.8 10.2a2 2 0 0 1 0 3.6 9 9 0 0 1-17.6 0 2 2 0 0 1 0-3.6A9 9 0 0 1 12 3c2 0 3.5 1.1 3.5 2.5s-.9 2.5-2 2.5c-.8 0-1.5-.4-1.5-1" />
      <path d="M9 12h.01" />
  </symbol>
  <!-- Tâm linh | church | Lucide ISC -->
  <symbol id="group-faith" viewBox="0 0 24 24" fill="none" stroke="currentColor" stroke-width="2" stroke-linecap="round" stroke-linejoin="round">
      <path d="M10 9h4" />
      <path d="M12 7v5" />
      <path d="M14 21v-3a2 2 0 0 0-4 0v3" />
      <path d="m18 9 3.52 2.147a1 1 0 0 1 .48.854V19a2 2 0 0 1-2 2H4a2 2 0 0 1-2-2v-6.999a1 1 0 0 1 .48-.854L6 9" />
      <path d="M6 21V7a1 1 0 0 1 .376-.782l5-3.999a1 1 0 0 1 1.249.001l5 4A1 1 0 0 1 18 7v14" />
  </symbol>
  <!-- Chụp ảnh | camera | Lucide ISC -->
  <symbol id="group-photo" viewBox="0 0 24 24" fill="none" stroke="currentColor" stroke-width="2" stroke-linecap="round" stroke-linejoin="round">
      <path d="M13.997 4a2 2 0 0 1 1.76 1.05l.486.9A2 2 0 0 0 18.003 7H20a2 2 0 0 1 2 2v9a2 2 0 0 1-2 2H4a2 2 0 0 1-2-2V9a2 2 0 0 1 2-2h1.997a2 2 0 0 0 1.759-1.048l.489-.904A2 2 0 0 1 10.004 4z" />
      <circle cx="12" cy="13" r="3" />
  </symbol>
  <!-- Âm nhạc | music-4 | Lucide ISC -->
  <symbol id="group-music" viewBox="0 0 24 24" fill="none" stroke="currentColor" stroke-width="2" stroke-linecap="round" stroke-linejoin="round">
      <path d="M9 18V5l12-2v13" />
      <path d="m9 9 12-2" />
      <circle cx="6" cy="18" r="3" />
      <circle cx="18" cy="16" r="3" />
  </symbol>
  <!-- Điện thoại | smartphone | Lucide ISC -->
  <symbol id="group-phone" viewBox="0 0 24 24" fill="none" stroke="currentColor" stroke-width="2" stroke-linecap="round" stroke-linejoin="round">
      <rect width="14" height="20" x="5" y="2" rx="2" ry="2" />
      <path d="M12 18h.01" />
  </symbol>
  <!-- Trường học | school | Lucide ISC -->
  <symbol id="group-school" viewBox="0 0 24 24" fill="none" stroke="currentColor" stroke-width="2" stroke-linecap="round" stroke-linejoin="round">
      <path d="M14 21v-3a2 2 0 0 0-4 0v3" />
      <path d="M18 4.933V21" />
      <path d="m4 6 7.106-3.79a2 2 0 0 1 1.788 0L20 6" />
      <path d="m6 11-3.52 2.147a1 1 0 0 0-.48.854V19a2 2 0 0 0 2 2h16a2 2 0 0 0 2-2v-5a1 1 0 0 0-.48-.853L18 11" />
      <path d="M6 4.933V21" />
      <circle cx="12" cy="9" r="2" />
  </symbol>
  <!-- Lưu trú | hotel | Lucide ISC -->
  <symbol id="group-hotel" viewBox="0 0 24 24" fill="none" stroke="currentColor" stroke-width="2" stroke-linecap="round" stroke-linejoin="round">
      <path d="M10 22v-6.57" />
      <path d="M12 11h.01" />
      <path d="M12 7h.01" />
      <path d="M14 15.43V22" />
      <path d="M15 16a5 5 0 0 0-6 0" />
      <path d="M16 11h.01" />
      <path d="M16 7h.01" />
      <path d="M8 11h.01" />
      <path d="M8 7h.01" />
      <rect x="4" y="2" width="16" height="20" rx="2" />
  </symbol>
  <!-- Thể thao | dumbbell | Lucide ISC -->
  <symbol id="group-fitness" viewBox="0 0 24 24" fill="none" stroke="currentColor" stroke-width="2" stroke-linecap="round" stroke-linejoin="round">
      <path d="M17.596 12.768a2 2 0 1 0 2.829-2.829l-1.768-1.767a2 2 0 0 0 2.828-2.829l-2.828-2.828a2 2 0 0 0-2.829 2.828l-1.767-1.768a2 2 0 1 0-2.829 2.829z" />
      <path d="m2.5 21.5 1.4-1.4" />
      <path d="m20.1 3.9 1.4-1.4" />
      <path d="M5.343 21.485a2 2 0 1 0 2.829-2.828l1.767 1.768a2 2 0 1 0 2.829-2.829l-6.364-6.364a2 2 0 1 0-2.829 2.829l1.768 1.767a2 2 0 0 0-2.828 2.829z" />
      <path d="m9.6 14.4 4.8-4.8" />
  </symbol>
</svg>